<svg width="127" height="89" xmlns="http://www.w3.org/2000/svg" xmlns:svg="http://www.w3.org/2000/svg">
 <!-- Created with SVG-edit - https://github.com/SVG-Edit/svgedit-->

 <g class="layer">
  <title>Layer 1</title>
  <g id="svg_13">
   <g fill="#000000" id="svg_14" transform="matrix(0.134174 0 0 -0.0925559 -98.1238 129.299)">
    <path d="m1013.09,1135.1c-50,-142 -91,-258 -90,-259c1,-1 49,29 107,66c100,66 105,71 122,121c10,29 22,57 27,62c4,4 20,-25 34,-65c14,-40 22,-75 18,-78c-4,-3 -119,-76 -255,-164c-233,-149 -247,-160 -242,-185c3,-14 8,-57 11,-96c10,-109 11,-110 49,-78c60,51 800,707 841,746l40,39l-45,-25c-25,-14 -89,-51 -144,-81c-54,-31 -102,-56 -105,-56c-4,0 -32,70 -62,155l-54,155l-80,0l-80,0l-92,-257z" fill="#db1515" id="svg_15" stroke="#bf1c1c"/>
    <path d="m1366.09,859.1c-32,-29 -57,-58 -55,-64c7,-18 293,-359 287,-343c-34,103 -164,460 -168,460c-3,0 -32,-24 -64,-53z" fill="#db1515" id="svg_16" stroke="#bf1c1c"/>
   </g>
  </g>
 </g>
</svg>